<svg data-v-423bf9ae="" xmlns="http://www.w3.org/2000/svg" viewBox="0 0 584.9174547631699 60" class="font"><!----><!----><!----><g data-v-423bf9ae="" id="5cb849e0-f116-4cfc-b11a-fad73fe2ebb5" fill="white" transform="matrix(5.192726055393977,0,0,5.192726055393977,-0.9466806212810752,-0.17850015201285174)"><path d="M2.09 1.62L2.09 1.62Q2.30 1.39 2.72 1.15Q3.14 0.91 3.62 0.76Q4.10 0.62 4.58 0.62L4.58 0.62Q5.05 0.62 5.39 0.85L5.39 0.85L5.47 0.77Q6.27 1.04 6.82 1.49Q7.36 1.95 7.63 2.79L7.63 2.79Q7.70 3.01 7.69 3.23Q7.67 3.46 7.74 3.68L7.74 3.68Q7.84 4.09 7.97 4.63Q8.11 5.18 8.04 5.85L8.04 5.85Q7.94 6.72 7.48 7.56Q7.01 8.40 6.31 9.02Q5.61 9.65 4.73 9.97Q3.85 10.30 2.93 10.14L2.93 10.14Q2.42 10.05 2.02 9.80Q1.61 9.55 1.30 9.19Q0.99 8.83 0.78 8.39Q0.56 7.95 0.43 7.48L0.43 7.48Q0.28 6.93 0.22 6.31Q0.15 5.70 0.21 5.08Q0.27 4.45 0.46 3.87Q0.66 3.29 1.01 2.83L1.01 2.83Q1.25 2.51 1.53 2.22Q1.81 1.93 2.09 1.62ZM5.15 2.41L5.15 2.41Q5.08 2.34 4.98 2.30Q4.89 2.25 4.79 2.21L4.79 2.21L4.70 2.30Q4.45 2.06 4.02 2.14Q3.58 2.23 3.14 2.44L3.14 2.44L3.02 2.62Q2.74 2.74 2.59 2.93Q2.44 3.11 2.36 3.33Q2.28 3.56 2.25 3.82Q2.23 4.09 2.21 4.38L2.21 4.38Q2.18 4.82 2.21 5.33Q2.23 5.85 2.33 6.37Q2.44 6.89 2.65 7.34Q2.86 7.80 3.21 8.12L3.21 8.12Q3.32 8.23 3.44 8.30Q3.57 8.37 3.70 8.44L3.70 8.44Q4.02 8.44 4.38 8.38Q4.75 8.32 5.08 8.20Q5.42 8.08 5.68 7.92Q5.94 7.77 6.05 7.57L6.05 7.57Q6.34 7.04 6.39 6.33Q6.44 5.61 6.31 4.89Q6.17 4.16 5.87 3.49Q5.57 2.83 5.15 2.41ZM3.91 9.23L3.91 9.23Q4.54 9.31 5.08 9.16Q5.61 9.00 6.03 8.67Q6.45 8.33 6.73 7.83Q7 7.34 7.08 6.73L7.08 6.73Q6.96 7.06 6.78 7.35L6.78 7.35Q6.66 7.50 6.50 7.67Q6.34 7.84 6.17 8.00Q6.01 8.16 5.86 8.29Q5.71 8.43 5.61 8.53L5.61 8.53Q5.45 8.68 4.97 8.88Q4.49 9.09 3.91 9.23ZM1.69 2.63L1.69 2.63Q1.50 2.98 1.36 3.44L1.36 3.44Q1.78 2.77 2.38 2.30L2.38 2.30Q2.58 2.14 2.94 1.92Q3.30 1.71 3.75 1.53L3.75 1.53Q3.46 1.53 3.14 1.63Q2.81 1.74 2.53 1.90Q2.24 2.06 2.02 2.25Q1.81 2.44 1.69 2.63ZM13.06 4.63L13.10 4.70Q13.31 4.83 13.49 5.00Q13.66 5.17 13.79 5.29L13.79 5.29Q14.22 5.75 14.45 6.15Q14.67 6.55 14.78 6.94Q14.88 7.34 14.90 7.73Q14.91 8.13 14.92 8.58L14.92 8.58Q15.05 9.00 15.12 9.41Q15.19 9.81 15.08 10.05L15.08 10.05Q15.01 10.21 14.90 10.32Q14.80 10.43 14.69 10.54L14.69 10.54Q14.64 10.58 14.57 10.65Q14.50 10.71 14.42 10.77Q14.34 10.82 14.26 10.84Q14.18 10.85 14.13 10.79L14.13 10.79Q14.07 10.56 14.06 10.28Q14.06 10.01 14.06 9.74L14.06 9.74Q13.97 9.37 13.85 8.99Q13.72 8.61 13.61 8.25L13.61 8.25Q13.69 8.16 13.78 8.09Q13.86 8.01 13.94 7.92L13.94 7.92Q13.87 7.67 13.80 7.48L13.80 7.48Q13.72 7.28 13.52 7Q13.33 6.72 13.09 6.43Q12.85 6.15 12.61 5.91Q12.36 5.67 12.17 5.56L12.17 5.56Q11.96 5.56 11.82 5.47L11.82 5.47Q11.77 5.45 11.77 5.35L11.77 5.35Q11.38 5.50 10.98 5.63Q10.57 5.77 10.21 5.89L10.21 5.89Q10.19 5.91 10.15 5.91L10.15 5.91Q10.15 6.17 10.15 6.44L10.15 6.44Q10.15 6.69 10.16 6.94L10.16 6.94Q10.18 7.07 10.18 7.19Q10.19 7.31 10.22 7.43L10.22 7.43Q10.26 7.78 10.34 8.13Q10.42 8.47 10.49 8.82L10.49 8.82Q10.50 8.89 10.51 8.97Q10.53 9.06 10.56 9.16L10.56 9.16Q10.58 9.35 10.61 9.55Q10.63 9.74 10.63 9.94L10.63 9.94L10.63 9.98L10.60 10.01Q10.56 10.11 10.44 10.26Q10.33 10.42 10.20 10.55Q10.07 10.68 9.93 10.75Q9.80 10.82 9.72 10.75L9.72 10.75L9.70 10.75L9.70 10.74Q9.69 10.58 9.68 10.44Q9.67 10.29 9.65 10.14L9.65 10.14Q9.51 10.28 9.37 10.34Q9.24 10.40 9.16 10.32L9.16 10.32Q9.10 10.18 9.09 10.04Q9.07 9.91 9.06 9.76L9.06 9.76Q9.00 9.48 8.99 9.10Q8.99 8.72 9.00 8.40L9.00 8.40Q8.96 7.56 8.96 6.75L8.96 6.75Q8.96 5.94 8.99 5.11L8.99 5.11L8.99 4.68Q8.96 4.37 8.95 4.05Q8.93 3.74 8.96 3.43L8.96 3.43Q8.95 3.29 8.95 3.16L8.95 3.16Q8.95 3.02 8.95 2.88L8.95 2.88Q8.92 2.77 8.90 2.67Q8.89 2.58 8.88 2.46L8.88 2.46Q8.69 2.52 8.57 2.53L8.57 2.53Q8.36 2.55 8.41 2.42Q8.46 2.30 8.60 2.13Q8.75 1.97 8.93 1.82Q9.11 1.67 9.16 1.64L9.16 1.64Q9.17 1.62 9.18 1.62L9.18 1.62Q9.20 1.62 9.21 1.61L9.21 1.61Q9.37 1.47 9.51 1.38Q9.65 1.29 9.84 1.25L9.84 1.25L9.73 1.39Q10.09 1.25 10.46 1.15Q10.84 1.06 11.20 0.99L11.20 0.99Q11.41 0.95 11.54 0.94Q11.68 0.92 11.79 0.91Q11.91 0.90 12.05 0.90Q12.18 0.91 12.40 0.91L12.40 0.91Q12.92 0.94 13.24 1.13Q13.55 1.32 13.71 1.62L13.71 1.62Q13.82 1.71 13.86 1.75L13.86 1.75Q13.97 1.90 13.95 2.10Q13.93 2.30 13.99 2.45L13.99 2.45Q14.06 2.60 14.13 2.74Q14.20 2.88 14.21 3.05L14.21 3.05Q14.21 3.28 14.08 3.49Q13.94 3.70 13.83 3.85L13.83 3.85Q13.68 4.09 13.48 4.28Q13.29 4.47 13.06 4.63L13.06 4.63ZM10.29 3.88L10.29 3.88Q10.26 4.16 10.24 4.45Q10.22 4.73 10.19 5.01L10.19 5.01Q10.25 5.01 10.29 5.00Q10.33 5.00 10.39 5.00L10.39 5.00Q10.46 4.96 10.55 4.91Q10.64 4.87 10.78 4.80L10.78 4.80Q10.99 4.69 11.28 4.52Q11.58 4.35 11.79 4.21L11.79 4.21Q11.96 4.10 12.19 3.95Q12.42 3.79 12.61 3.60Q12.80 3.42 12.89 3.18Q12.99 2.95 12.88 2.69L12.88 2.69Q12.82 2.58 12.80 2.53L12.80 2.53Q12.60 2.45 12.35 2.40Q12.10 2.35 12.01 2.32L12.01 2.32Q11.59 2.25 11.12 2.23Q10.64 2.21 10.26 2.32L10.26 2.32Q10.28 2.35 10.29 2.37Q10.30 2.39 10.32 2.42L10.32 2.42L10.28 2.46Q10.30 2.58 10.34 2.68Q10.37 2.79 10.39 2.90L10.39 2.90Q10.42 3.14 10.37 3.39Q10.32 3.64 10.29 3.88ZM13.29 3.86L13.29 3.86Q13.26 3.79 13.24 3.72Q13.22 3.65 13.19 3.58L13.19 3.58Q12.95 3.86 12.63 4.12Q12.32 4.38 11.98 4.62L11.98 4.62Q12.42 4.47 12.80 4.28Q13.17 4.10 13.29 3.86ZM16.34 1.27L16.34 1.27Q16.45 1.25 16.57 1.24Q16.69 1.23 16.80 1.22L16.80 1.22Q16.94 1.19 17.07 1.15Q17.21 1.12 17.33 1.09L17.33 1.09Q17.96 0.97 18.56 0.91Q19.17 0.85 19.80 0.98L19.80 0.98L19.68 1.11Q19.70 1.11 19.71 1.10Q19.73 1.09 19.74 1.09L19.74 1.09Q19.91 1.06 20.08 1.03Q20.26 0.99 20.45 0.95L20.45 0.95L20.43 0.98Q20.52 0.94 20.61 0.90Q20.71 0.85 20.82 0.85L20.82 0.85Q20.83 0.87 20.89 0.87L20.89 0.87L20.89 0.90Q20.65 1.12 20.43 1.33Q20.22 1.54 19.99 1.75L19.99 1.75L20.02 1.78Q19.95 1.78 19.88 1.82Q19.81 1.86 19.73 1.89L19.73 1.89Q19.64 1.92 19.55 1.93Q19.46 1.95 19.38 1.96L19.38 1.96Q19.36 2.39 19.28 2.82Q19.19 3.25 19.15 3.64L19.15 3.64Q19.12 3.92 19.10 4.14Q19.07 4.37 19.04 4.59L19.04 4.59Q19.04 4.93 19.03 5.27Q19.03 5.61 19.01 5.95L19.01 5.95L18.97 6.54Q18.98 6.64 18.98 6.73L18.98 6.73Q18.98 6.82 19.00 6.92L19.00 6.92Q19.03 7.49 19.03 8.06L19.03 8.06Q19.03 8.62 19.12 9.18L19.12 9.18L19.15 9.17L19.15 9.27L19.14 9.28Q19.11 9.34 19.07 9.41Q19.04 9.49 18.97 9.58L18.97 9.58Q19.04 9.55 19.12 9.54Q19.19 9.53 19.26 9.52L19.26 9.52L19.28 9.51L19.33 9.51Q19.33 9.51 19.35 9.52L19.35 9.52Q19.46 9.49 19.58 9.48Q19.70 9.48 19.81 9.46L19.81 9.46Q19.92 9.44 20.12 9.41L20.12 9.41Q20.15 9.41 20.24 9.41Q20.33 9.42 20.40 9.42L20.40 9.42Q20.41 9.42 20.43 9.41Q20.44 9.41 20.45 9.41L20.45 9.41L20.51 9.41L20.50 9.42Q20.59 9.46 20.52 9.61Q20.44 9.76 20.29 9.91Q20.15 10.07 19.96 10.19Q19.78 10.32 19.66 10.33L19.66 10.33Q19.47 10.35 19.29 10.36Q19.11 10.37 18.93 10.40L18.93 10.40Q18.82 10.43 18.73 10.43L18.73 10.43Q18.55 10.51 18.35 10.55Q18.14 10.58 17.92 10.64Q17.70 10.70 17.46 10.79Q17.23 10.88 16.98 11.09L16.98 11.09Q16.80 11.21 16.69 11.21L16.69 11.21Q16.56 11.33 16.42 11.39Q16.28 11.45 16.16 11.45L16.16 11.45Q16.09 11.38 16.11 11.33Q16.14 11.27 16.18 11.20L16.18 11.20Q16.37 10.84 16.65 10.58Q16.93 10.32 17.26 10.12L17.26 10.12Q17.15 8.11 17.20 6.10Q17.25 4.10 17.35 2.07L17.35 2.07Q17.35 2.02 17.42 1.88L17.42 1.88Q17.22 1.90 17.02 1.94Q16.83 1.97 16.63 2.00L16.63 2.00Q16.35 2.06 16.09 2.13Q15.82 2.20 15.54 2.20L15.54 2.20Q15.46 2.11 15.53 1.97Q15.60 1.83 15.74 1.69Q15.89 1.55 16.05 1.44Q16.21 1.32 16.31 1.29L16.31 1.29L16.32 1.27L16.34 1.27ZM16.69 10.71L16.69 10.71Q16.63 10.77 16.61 10.79Q16.59 10.81 16.58 10.83Q16.56 10.85 16.54 10.88Q16.52 10.91 16.48 10.98L16.48 10.98L16.66 10.89Q16.73 10.81 16.81 10.73Q16.88 10.65 16.95 10.58L16.95 10.58L16.95 10.54Q16.93 10.56 16.86 10.58Q16.80 10.60 16.77 10.63L16.77 10.63L16.69 10.71ZM23.14 1.62L23.14 1.62Q23.35 1.39 23.77 1.15Q24.19 0.91 24.67 0.76Q25.16 0.62 25.63 0.62L25.63 0.62Q26.11 0.62 26.45 0.85L26.45 0.85L26.53 0.77Q27.33 1.04 27.87 1.49Q28.42 1.95 28.69 2.79L28.69 2.79Q28.76 3.01 28.74 3.23Q28.73 3.46 28.80 3.68L28.80 3.68Q28.90 4.09 29.03 4.63Q29.16 5.18 29.09 5.85L29.09 5.85Q28.99 6.72 28.53 7.56Q28.07 8.40 27.37 9.02Q26.67 9.65 25.79 9.97Q24.91 10.30 23.98 10.14L23.98 10.14Q23.48 10.05 23.07 9.80Q22.67 9.55 22.36 9.19Q22.05 8.83 21.83 8.39Q21.62 7.95 21.49 7.48L21.49 7.48Q21.34 6.93 21.27 6.31Q21.21 5.70 21.27 5.08Q21.32 4.45 21.52 3.87Q21.71 3.29 22.06 2.83L22.06 2.83Q22.30 2.51 22.58 2.22Q22.86 1.93 23.14 1.62ZM26.21 2.41L26.21 2.41Q26.14 2.34 26.04 2.30Q25.94 2.25 25.84 2.21L25.84 2.21L25.76 2.30Q25.51 2.06 25.07 2.14Q24.64 2.23 24.19 2.44L24.19 2.44L24.08 2.62Q23.80 2.74 23.65 2.93Q23.49 3.11 23.41 3.33Q23.34 3.56 23.31 3.82Q23.28 4.09 23.27 4.38L23.27 4.38Q23.24 4.82 23.26 5.33Q23.28 5.85 23.39 6.37Q23.49 6.89 23.70 7.34Q23.91 7.80 24.26 8.12L24.26 8.12Q24.37 8.23 24.50 8.30Q24.63 8.37 24.75 8.44L24.75 8.44Q25.07 8.44 25.44 8.38Q25.80 8.32 26.14 8.20Q26.47 8.08 26.73 7.92Q26.99 7.77 27.10 7.57L27.10 7.57Q27.40 7.04 27.45 6.33Q27.50 5.61 27.36 4.89Q27.23 4.16 26.93 3.49Q26.63 2.83 26.21 2.41ZM24.96 9.23L24.96 9.23Q25.59 9.31 26.13 9.16Q26.67 9.00 27.09 8.67Q27.51 8.33 27.78 7.83Q28.06 7.34 28.14 6.73L28.14 6.73Q28.01 7.06 27.83 7.35L27.83 7.35Q27.72 7.50 27.56 7.67Q27.40 7.84 27.23 8.00Q27.06 8.16 26.91 8.29Q26.77 8.43 26.67 8.53L26.67 8.53Q26.50 8.68 26.03 8.88Q25.55 9.09 24.96 9.23ZM22.75 2.63L22.75 2.63Q22.55 2.98 22.41 3.44L22.41 3.44Q22.83 2.77 23.44 2.30L23.44 2.30Q23.63 2.14 24.00 1.92Q24.36 1.71 24.81 1.53L24.81 1.53Q24.51 1.53 24.19 1.63Q23.87 1.74 23.58 1.90Q23.30 2.06 23.08 2.25Q22.86 2.44 22.75 2.63ZM31.00 0.70L30.95 0.74Q30.98 0.81 31.00 0.92Q31.02 1.02 31.05 1.06L31.05 1.06Q31.12 1.27 31.19 1.41L31.19 1.41Q31.23 1.40 31.27 1.39Q31.30 1.39 31.35 1.39L31.35 1.39Q31.36 1.36 31.42 1.30L31.42 1.30Q31.42 1.33 31.42 1.35Q31.43 1.37 31.43 1.40L31.43 1.40Q31.54 1.57 31.60 1.79Q31.65 2.02 31.70 2.23L31.70 2.23Q31.93 2.84 32.23 3.42Q32.54 3.99 32.86 4.58L32.86 4.58Q33.05 4.94 33.25 5.32Q33.45 5.70 33.66 6.06L33.66 6.06Q33.94 6.45 34.24 6.84Q34.55 7.22 34.86 7.59L34.86 7.59Q34.83 7.18 34.84 6.78Q34.85 6.37 34.83 5.96L34.83 5.96Q34.82 5.64 34.78 5.19Q34.75 4.73 34.71 4.22Q34.68 3.71 34.68 3.19L34.68 3.19Q34.68 2.66 34.75 2.18Q34.82 1.69 34.98 1.30Q35.14 0.91 35.42 0.67L35.42 0.67Q35.52 0.59 35.63 0.51Q35.74 0.43 35.88 0.46L35.88 0.46Q35.97 0.52 35.97 0.73Q35.98 0.95 35.96 1.21Q35.94 1.47 35.90 1.71Q35.85 1.96 35.84 2.07L35.84 2.07Q35.85 2.39 35.86 2.63Q35.87 2.87 35.88 2.90L35.88 2.90Q35.95 3.72 36.08 4.54Q36.22 5.36 36.34 6.18Q36.47 7 36.57 7.82Q36.68 8.64 36.69 9.46L36.69 9.46Q36.65 9.59 36.47 9.84L36.47 9.84Q36.50 9.87 36.51 9.87L36.51 9.87L36.48 9.90Q36.50 10.04 36.41 10.19Q36.32 10.33 36.18 10.46Q36.05 10.58 35.90 10.67Q35.74 10.75 35.62 10.77L35.62 10.77Q35.55 10.70 35.48 10.63Q35.41 10.57 35.34 10.50L35.34 10.50Q35.27 10.44 35.18 10.35L35.18 10.35Q35.14 10.30 35.10 10.26Q35.07 10.21 35.04 10.15L35.04 10.15Q34.79 9.86 34.57 9.55Q34.34 9.25 34.10 8.95L34.10 8.95Q33.92 8.75 33.75 8.51L33.75 8.51Q33.70 8.46 33.68 8.41L33.68 8.41Q33.36 8.01 33.05 7.60Q32.75 7.20 32.47 6.76L32.47 6.76Q32.24 6.43 32.06 6.06Q31.88 5.70 31.70 5.33L31.70 5.33Q31.60 5.15 31.51 4.98Q31.42 4.82 31.33 4.63L31.33 4.63Q31.42 5.18 31.49 5.77Q31.56 6.36 31.60 6.92Q31.64 7.49 31.65 8.03Q31.65 8.57 31.61 9.03L31.61 9.03Q31.57 9.21 31.43 9.39Q31.29 9.58 31.11 9.72L31.11 9.72Q31.08 10.07 30.95 10.37Q30.83 10.68 30.56 10.95L30.56 10.95Q30.45 11.06 30.32 11.14Q30.20 11.23 30.04 11.24L30.04 11.24Q29.88 11.20 29.86 10.98Q29.85 10.75 29.85 10.63L29.85 10.63L29.85 9.10Q29.85 8.75 29.85 8.40Q29.86 8.05 29.86 7.70L29.86 7.70L29.85 7.71Q29.48 6.48 29.48 5.25Q29.47 4.02 29.53 2.76L29.53 2.76Q29.53 2.65 29.52 2.41Q29.51 2.18 29.51 1.92L29.51 1.92Q29.51 1.64 29.53 1.37Q29.55 1.09 29.61 0.91L29.61 0.91Q29.61 0.88 29.60 0.85Q29.60 0.81 29.60 0.78L29.60 0.78L29.69 0.73Q29.78 0.62 29.91 0.46Q30.04 0.31 30.18 0.19Q30.31 0.07 30.41 0.04Q30.52 0.01 30.55 0.14L30.55 0.14Q30.58 0.29 30.59 0.44Q30.60 0.59 30.63 0.74L30.63 0.74Q30.79 0.66 30.94 0.67L30.94 0.67Q30.95 0.69 30.97 0.69L30.97 0.69Q30.98 0.69 31.00 0.70L31.00 0.70ZM48.01 9.07L47.98 9.13Q48.26 9.07 48.55 9.04Q48.85 9.00 49.01 9.04Q49.18 9.09 49.16 9.25Q49.14 9.41 48.80 9.74L48.80 9.74L48.66 9.62Q48.55 9.77 48.39 9.90Q48.23 10.04 48.12 10.11L48.12 10.11Q47.64 10.39 46.93 10.42Q46.23 10.44 45.49 10.43L45.49 10.43Q45.33 10.47 45.18 10.51Q45.02 10.54 44.87 10.60L44.87 10.60Q44.60 10.67 44.31 10.78Q44.02 10.89 43.71 10.99Q43.41 11.09 43.11 11.16Q42.80 11.23 42.52 11.20L42.52 11.20L42.48 11.16Q42.38 11.19 42.29 11.20Q42.20 11.21 42.14 11.20L42.14 11.20Q42.03 11.19 42.04 11.08Q42.06 10.98 42.12 10.86Q42.18 10.74 42.26 10.64Q42.34 10.54 42.35 10.53L42.35 10.53Q42.21 10.65 42.07 10.72Q41.93 10.79 41.86 10.72L41.86 10.72Q41.78 10.58 41.76 10.44Q41.75 10.29 41.76 10.14L41.76 10.14L41.76 9.76Q41.73 9.79 41.65 9.84L41.65 9.84Q41.58 9.90 41.45 9.97Q41.33 10.05 41.24 9.97L41.24 9.97Q41.23 9.31 41.46 8.70Q41.69 8.09 41.92 7.49L41.92 7.49Q42.03 6.85 42.21 6.40L42.21 6.40L42.21 6.38Q42.22 6.36 42.24 6.33Q42.25 6.30 42.27 6.27L42.27 6.27Q42.28 6.24 42.34 6.18Q42.39 6.12 42.46 6.03L42.46 6.03Q42.49 5.88 42.51 5.74Q42.53 5.60 42.56 5.46L42.56 5.46L42.56 5.11Q42.46 5.18 42.38 5.21Q42.29 5.24 42.22 5.17L42.22 5.17Q42.21 5.12 42.22 5.00Q42.22 4.89 42.25 4.76Q42.28 4.63 42.31 4.51Q42.35 4.38 42.36 4.31L42.36 4.31Q42.39 3.96 42.38 3.67Q42.38 3.37 42.39 3.09L42.39 3.09Q42.36 2.90 42.34 2.72Q42.32 2.53 42.35 2.35L42.35 2.35Q42.32 2.24 42.28 2.18L42.28 2.18Q42.31 2.16 42.34 2.14Q42.36 2.13 42.39 2.10L42.39 2.10L42.43 1.97L42.32 2.03Q42.32 2.03 42.35 1.97L42.35 1.97Q42.42 1.86 42.56 1.69L42.56 1.69Q42.64 1.51 42.81 1.34L42.81 1.34Q42.94 1.22 43.08 1.11Q43.22 0.99 43.41 0.97L43.41 0.97Q43.43 0.98 43.48 0.98L43.48 0.98Q43.54 1.13 43.48 1.29Q43.41 1.44 43.36 1.60L43.36 1.60Q43.51 1.47 43.67 1.40L43.67 1.40Q43.71 1.39 43.76 1.38Q43.81 1.37 43.85 1.39L43.85 1.39Q43.96 1.48 44.06 1.65L44.06 1.65L43.88 1.82L43.89 1.82Q44.00 2.25 43.93 2.71Q43.86 3.16 43.75 3.61L43.75 3.61Q43.86 3.58 43.88 3.71L43.88 3.71Q43.76 4.66 43.74 5.60Q43.72 6.54 43.75 7.50L43.75 7.50Q43.76 7.99 43.79 8.51Q43.82 9.03 43.76 9.53L43.76 9.53Q43.79 9.52 43.81 9.51Q43.83 9.51 43.86 9.49L43.86 9.49Q44.24 9.35 44.62 9.32Q45.00 9.28 45.36 9.30Q45.72 9.31 46.09 9.34Q46.45 9.37 46.80 9.35L46.80 9.35L46.83 9.35Q47.03 9.31 47.21 9.27Q47.39 9.23 47.59 9.20L47.59 9.20Q47.64 9.18 47.69 9.18Q47.74 9.17 47.81 9.16L47.81 9.16Q47.85 9.13 47.90 9.11Q47.95 9.10 48.01 9.07L48.01 9.07ZM51.44 1.62L51.44 1.62Q51.65 1.39 52.07 1.15Q52.49 0.91 52.97 0.76Q53.45 0.62 53.93 0.62L53.93 0.62Q54.40 0.62 54.74 0.85L54.74 0.85L54.82 0.77Q55.62 1.04 56.17 1.49Q56.71 1.95 56.98 2.79L56.98 2.79Q57.05 3.01 57.04 3.23Q57.02 3.46 57.09 3.68L57.09 3.68Q57.19 4.09 57.32 4.63Q57.46 5.18 57.39 5.85L57.39 5.85Q57.29 6.72 56.83 7.56Q56.36 8.40 55.66 9.02Q54.96 9.65 54.08 9.97Q53.20 10.30 52.28 10.14L52.28 10.14Q51.77 10.05 51.37 9.80Q50.96 9.55 50.65 9.19Q50.34 8.83 50.13 8.39Q49.91 7.95 49.78 7.48L49.78 7.48Q49.63 6.93 49.57 6.31Q49.50 5.70 49.56 5.08Q49.62 4.45 49.81 3.87Q50.01 3.29 50.36 2.83L50.36 2.83Q50.60 2.51 50.88 2.22Q51.16 1.93 51.44 1.62ZM54.50 2.41L54.50 2.41Q54.43 2.34 54.33 2.30Q54.24 2.25 54.14 2.21L54.14 2.21L54.05 2.30Q53.80 2.06 53.37 2.14Q52.93 2.23 52.49 2.44L52.49 2.44L52.37 2.62Q52.09 2.74 51.94 2.93Q51.79 3.11 51.71 3.33Q51.63 3.56 51.60 3.82Q51.58 4.09 51.56 4.38L51.56 4.38Q51.53 4.82 51.55 5.33Q51.58 5.85 51.68 6.37Q51.79 6.89 52.00 7.34Q52.21 7.80 52.56 8.12L52.56 8.12Q52.67 8.23 52.79 8.30Q52.92 8.37 53.05 8.44L53.05 8.44Q53.37 8.44 53.73 8.38Q54.10 8.32 54.43 8.20Q54.77 8.08 55.03 7.92Q55.29 7.77 55.40 7.57L55.40 7.57Q55.69 7.04 55.74 6.33Q55.79 5.61 55.66 4.89Q55.52 4.16 55.22 3.49Q54.92 2.83 54.50 2.41ZM53.26 9.23L53.26 9.23Q53.89 9.31 54.42 9.16Q54.96 9.00 55.38 8.67Q55.80 8.33 56.08 7.83Q56.35 7.34 56.43 6.73L56.43 6.73Q56.31 7.06 56.13 7.35L56.13 7.35Q56.01 7.50 55.85 7.67Q55.69 7.84 55.52 8.00Q55.36 8.16 55.21 8.29Q55.06 8.43 54.96 8.53L54.96 8.53Q54.80 8.68 54.32 8.88Q53.84 9.09 53.26 9.23ZM51.04 2.63L51.04 2.63Q50.85 2.98 50.71 3.44L50.71 3.44Q51.13 2.77 51.73 2.30L51.73 2.30Q51.93 2.14 52.29 1.92Q52.65 1.71 53.10 1.53L53.10 1.53Q52.81 1.53 52.49 1.63Q52.16 1.74 51.88 1.90Q51.59 2.06 51.37 2.25Q51.16 2.44 51.04 2.63ZM66.26 3.26L66.19 3.35Q66.28 3.32 66.30 3.43L66.30 3.43Q66.30 3.46 66.31 3.48Q66.32 3.50 66.32 3.53L66.32 3.53Q66.43 3.50 66.53 3.49Q66.64 3.47 66.75 3.44L66.75 3.44Q67.41 3.15 68.18 2.97L68.18 2.97Q68.00 3.21 67.82 3.43Q67.65 3.65 67.48 3.88L67.48 3.88L67.19 3.96Q67.07 4.06 66.99 4.12Q66.91 4.19 66.88 4.21L66.88 4.21Q66.75 4.28 66.57 4.35L66.57 4.35Q66.61 4.55 66.56 4.77Q66.50 4.98 66.44 5.18L66.44 5.18L66.25 5.32Q66.22 5.40 66.22 5.49L66.22 5.49Q66.22 5.57 66.21 5.66L66.21 5.66Q66.21 5.73 66.19 5.86Q66.18 5.99 66.16 6.14Q66.15 6.29 66.14 6.42Q66.14 6.55 66.14 6.62L66.14 6.62Q66.09 7.25 66.08 7.85Q66.07 8.46 66.04 9.07L66.04 9.07Q66.02 9.42 66.01 9.77Q66.00 10.12 65.92 10.44Q65.84 10.77 65.67 11.05Q65.49 11.33 65.16 11.52L65.16 11.52Q65.09 11.55 65.02 11.58Q64.96 11.61 64.90 11.54L64.90 11.54Q64.82 11.38 64.80 11.15Q64.78 10.92 64.78 10.68Q64.79 10.43 64.81 10.20Q64.83 9.97 64.83 9.80L64.83 9.80Q64.85 9.52 64.86 9.23Q64.88 8.93 64.90 8.65L64.90 8.65Q64.55 8.93 64.22 9.14Q63.88 9.35 63.64 9.45L63.64 9.45Q63.31 9.59 62.97 9.74Q62.64 9.88 62.29 9.99Q61.95 10.09 61.60 10.13Q61.25 10.16 60.87 10.11L60.87 10.11Q60.62 10.07 60.39 9.93Q60.16 9.80 59.92 9.72L59.92 9.72Q59.44 9.56 59.12 9.44Q58.80 9.31 58.58 9.11Q58.35 8.92 58.20 8.61Q58.06 8.30 57.92 7.78L57.92 7.78Q57.67 6.83 57.78 5.92Q57.90 5.00 58.30 4.17Q58.70 3.35 59.32 2.63Q59.95 1.92 60.70 1.37L60.70 1.37Q61.22 1.01 61.87 0.80Q62.52 0.60 63.17 0.64L63.17 0.64Q63.39 0.66 63.56 0.69Q63.73 0.71 63.94 0.76L63.94 0.76Q64.05 0.78 64.11 0.77Q64.18 0.76 64.33 0.70L64.33 0.70Q64.30 0.90 64.20 1.04Q64.09 1.19 63.97 1.33L63.97 1.33Q63.73 1.57 63.52 1.63Q63.32 1.69 63.10 1.67L63.10 1.67L62.99 1.78Q62.72 1.71 62.38 1.83Q62.05 1.96 61.70 2.18L61.70 2.18L61.61 2.34Q61.53 2.38 61.44 2.41Q61.35 2.45 61.28 2.48L61.28 2.48Q61.18 2.55 61.10 2.63Q61.01 2.72 60.93 2.79L60.93 2.79Q60.83 2.93 60.76 3.12Q60.69 3.30 60.65 3.48Q60.61 3.65 60.58 3.81Q60.55 3.96 60.55 4.03L60.55 4.03Q60.48 4.59 60.50 5.22Q60.52 5.85 60.67 6.46Q60.82 7.07 61.10 7.62Q61.38 8.18 61.82 8.57L61.82 8.57Q61.91 8.57 61.99 8.57L61.99 8.57Q62.08 8.57 62.16 8.58L62.16 8.58L62.03 8.74Q62.23 8.86 62.46 8.94Q62.69 9.02 62.90 9.11L62.90 9.11Q63.35 9.00 63.77 8.80Q64.19 8.60 64.60 8.41L64.60 8.41Q64.69 8.34 64.78 8.26Q64.88 8.18 64.96 8.06L64.96 8.06L64.95 8.08Q64.90 8.12 64.96 8.01L64.96 8.01Q65.03 7.43 65.11 6.88Q65.18 6.33 65.25 5.75L65.25 5.75Q65.28 5.54 65.32 5.30Q65.35 5.05 65.38 4.80L65.38 4.80Q65.06 4.94 64.75 5.07Q64.44 5.19 64.13 5.35L64.13 5.35Q63.73 5.56 63.33 5.77Q62.93 5.98 62.51 6.16L62.51 6.16Q62.36 6.17 62.38 6.08Q62.40 5.98 62.48 5.85Q62.57 5.73 62.68 5.61Q62.79 5.49 62.82 5.46L62.82 5.46L62.99 5.33Q62.99 5.33 63.00 5.31L63.00 5.31Q63.03 5.29 63.03 5.29L63.03 5.29Q63.04 5.29 63.07 5.28L63.07 5.28Q63.08 5.26 63.08 5.26L63.08 5.26Q63.10 5.26 63.11 5.25L63.11 5.25Q63.01 5.25 62.94 5.21L62.94 5.21Q62.82 5.15 62.86 5.01Q62.90 4.87 63.01 4.72Q63.13 4.56 63.26 4.42Q63.39 4.28 63.46 4.23L63.46 4.23Q64.04 3.78 64.79 3.54Q65.55 3.30 66.26 3.26L66.26 3.26ZM59.56 3.49L60.00 3.18L60.27 2.91Q60.55 2.46 60.96 2.11L60.96 2.11Q61.11 1.99 61.30 1.89Q61.49 1.79 61.68 1.69L61.68 1.69Q61.73 1.67 61.84 1.58L61.84 1.58Q61.67 1.60 61.51 1.63Q61.35 1.67 61.18 1.72L61.18 1.72Q60.59 1.92 60.15 2.31Q59.71 2.70 59.39 3.21Q59.08 3.71 58.90 4.29Q58.72 4.87 58.67 5.46L58.67 5.46Q58.65 5.91 58.72 6.50Q58.80 7.10 59.05 7.62L59.05 7.62Q58.77 6.40 58.87 5.54Q58.97 4.68 59.43 3.93L59.43 3.93Q59.46 3.82 59.49 3.71Q59.53 3.60 59.56 3.49L59.56 3.49ZM69.37 1.27L69.37 1.27Q69.48 1.25 69.60 1.24Q69.72 1.23 69.83 1.22L69.83 1.22Q69.97 1.19 70.11 1.15Q70.24 1.12 70.36 1.09L70.36 1.09Q70.99 0.97 71.60 0.91Q72.20 0.85 72.83 0.98L72.83 0.98L72.72 1.11Q72.73 1.11 72.74 1.10Q72.76 1.09 72.77 1.09L72.77 1.09Q72.94 1.06 73.11 1.03Q73.29 0.99 73.49 0.95L73.49 0.95L73.46 0.98Q73.56 0.94 73.65 0.90Q73.74 0.85 73.85 0.85L73.85 0.85Q73.86 0.87 73.92 0.87L73.92 0.87L73.92 0.90Q73.68 1.12 73.47 1.33Q73.25 1.54 73.02 1.75L73.02 1.75L73.05 1.78Q72.98 1.78 72.91 1.82Q72.84 1.86 72.76 1.89L72.76 1.89Q72.67 1.92 72.58 1.93Q72.49 1.95 72.41 1.96L72.41 1.96Q72.39 2.39 72.31 2.82Q72.23 3.25 72.18 3.64L72.18 3.64Q72.16 3.92 72.13 4.14Q72.10 4.37 72.07 4.59L72.07 4.59Q72.07 4.93 72.06 5.27Q72.06 5.61 72.04 5.95L72.04 5.95L72.00 6.54Q72.02 6.64 72.02 6.73L72.02 6.73Q72.02 6.82 72.03 6.92L72.03 6.92Q72.06 7.49 72.06 8.06L72.06 8.06Q72.06 8.62 72.16 9.18L72.16 9.18L72.18 9.17L72.18 9.27L72.17 9.28Q72.14 9.34 72.11 9.41Q72.07 9.49 72.00 9.58L72.00 9.58Q72.07 9.55 72.15 9.54Q72.23 9.53 72.30 9.52L72.30 9.52L72.31 9.51L72.37 9.51Q72.37 9.51 72.38 9.52L72.38 9.52Q72.49 9.49 72.61 9.48Q72.73 9.48 72.84 9.46L72.84 9.46Q72.95 9.44 73.15 9.41L73.15 9.41Q73.18 9.41 73.27 9.41Q73.36 9.42 73.43 9.42L73.43 9.42Q73.44 9.42 73.46 9.41Q73.47 9.41 73.49 9.41L73.49 9.41L73.54 9.41L73.53 9.42Q73.63 9.46 73.55 9.61Q73.47 9.76 73.33 9.91Q73.18 10.07 73.00 10.19Q72.81 10.32 72.69 10.33L72.69 10.33Q72.51 10.35 72.32 10.36Q72.14 10.37 71.96 10.40L71.96 10.40Q71.85 10.43 71.76 10.43L71.76 10.43Q71.58 10.51 71.38 10.55Q71.18 10.58 70.95 10.64Q70.73 10.70 70.50 10.79Q70.27 10.88 70.01 11.09L70.01 11.09Q69.83 11.21 69.72 11.21L69.72 11.21Q69.59 11.33 69.45 11.39Q69.31 11.45 69.19 11.45L69.19 11.45Q69.12 11.38 69.15 11.33Q69.17 11.27 69.22 11.20L69.22 11.20Q69.40 10.84 69.68 10.58Q69.96 10.32 70.29 10.12L70.29 10.12Q70.18 8.11 70.23 6.10Q70.28 4.10 70.38 2.07L70.38 2.07Q70.38 2.02 70.45 1.88L70.45 1.88Q70.25 1.90 70.06 1.94Q69.86 1.97 69.66 2.00L69.66 2.00Q69.38 2.06 69.12 2.13Q68.85 2.20 68.57 2.20L68.57 2.20Q68.49 2.11 68.56 1.97Q68.63 1.83 68.78 1.69Q68.92 1.55 69.08 1.44Q69.24 1.32 69.34 1.29L69.34 1.29L69.36 1.27L69.37 1.27ZM69.72 10.71L69.72 10.71Q69.66 10.77 69.64 10.79Q69.62 10.81 69.61 10.83Q69.59 10.85 69.57 10.88Q69.55 10.91 69.51 10.98L69.51 10.98L69.69 10.89Q69.76 10.81 69.84 10.73Q69.92 10.65 69.99 10.58L69.99 10.58L69.99 10.54Q69.96 10.56 69.89 10.58Q69.83 10.60 69.80 10.63L69.80 10.63L69.72 10.71ZM81.24 0.81L80.44 1.74Q80.33 1.74 80.28 1.72L80.28 1.72L80.25 1.76Q80.15 1.78 80.06 1.79Q79.97 1.81 79.86 1.83L79.86 1.83L79.81 1.83Q79.44 1.90 78.99 2.03Q78.54 2.16 78.08 2.34L78.08 2.34Q77.53 2.70 76.99 3.21L76.99 3.21Q76.80 3.70 76.69 4.21Q76.58 4.72 76.66 5.21L76.66 5.21Q77.06 5.22 77.49 5.11Q77.92 5.00 78.36 4.87Q78.81 4.75 79.25 4.65Q79.69 4.55 80.08 4.59L80.08 4.59Q80.19 4.62 80.33 4.66Q80.47 4.69 80.61 4.72L80.61 4.72Q80.99 4.68 81.26 4.70Q81.52 4.72 81.69 4.87L81.69 4.87Q81.84 4.90 81.89 4.96L81.89 4.96Q82.05 5.24 82.07 5.50Q82.10 5.75 82.01 5.99L82.01 5.99Q82.01 6.34 81.86 6.69Q81.70 7.04 81.47 7.36L81.47 7.36Q81.28 7.70 81.01 8.02Q80.74 8.33 80.44 8.62Q80.15 8.90 79.86 9.16Q79.56 9.42 79.34 9.65L79.34 9.65Q78.89 10.14 78.52 10.38Q78.15 10.63 77.73 10.70L77.73 10.70Q77.35 10.85 76.96 10.93L76.96 10.93Q76.93 10.93 76.89 10.94Q76.86 10.95 76.83 10.95L76.83 10.95Q76.72 11.03 76.68 11.07L76.68 11.07Q76.68 11.05 76.69 11.03Q76.71 11.00 76.71 10.98L76.71 10.98Q76.43 11.02 76.20 11.02L76.20 11.02Q75.98 11.02 75.76 10.99Q75.54 10.96 75.32 10.89Q75.10 10.82 74.80 10.74L74.80 10.74Q74.65 10.68 74.50 10.63Q74.35 10.57 74.26 10.43L74.26 10.43Q74.37 10.32 74.48 10.22Q74.59 10.12 74.70 10.01L74.70 10.01Q74.66 9.88 74.58 9.76L74.58 9.76Q74.59 9.63 74.68 9.48Q74.77 9.32 74.91 9.18Q75.04 9.04 75.19 8.95Q75.35 8.86 75.49 8.89L75.49 8.89L75.50 8.88Q75.50 8.90 75.53 8.93L75.53 8.93Q75.61 9.04 75.70 9.04L75.70 9.04L75.60 9.16Q75.61 9.24 75.67 9.31L75.67 9.31Q75.73 9.42 75.89 9.52L75.89 9.52L75.92 9.49Q76.47 9.60 76.94 9.62Q77.41 9.63 77.85 9.56L77.85 9.56Q78.08 9.35 78.29 9.13Q78.50 8.92 78.74 8.69L78.74 8.69L78.75 8.68Q78.78 8.65 78.81 8.62Q78.85 8.58 78.89 8.55L78.89 8.55L78.96 8.48Q79.07 8.37 79.19 8.26Q79.31 8.15 79.44 8.04L79.44 8.04Q79.48 7.99 79.53 7.96Q79.58 7.92 79.62 7.88L79.62 7.88Q79.74 7.42 79.74 6.96Q79.73 6.50 79.55 5.94L79.55 5.94L79.51 5.94L79.48 5.96L79.48 5.95Q78.97 6.05 78.48 6.20Q77.99 6.36 77.50 6.49Q77 6.62 76.51 6.69Q76.02 6.76 75.53 6.68L75.53 6.68Q75.38 6.65 75.24 6.58Q75.10 6.51 74.96 6.44L74.96 6.44Q74.79 6.37 74.72 6.21Q74.66 6.05 74.69 5.85L74.69 5.85Q74.63 5.67 74.67 5.46Q74.70 5.25 74.79 5.01L74.79 5.01Q74.80 4.80 74.82 4.59Q74.84 4.38 74.88 4.19Q74.91 4.00 74.94 3.87Q74.97 3.74 74.98 3.68L74.98 3.68Q75.00 3.64 75.04 3.56Q75.08 3.47 75.13 3.39Q75.18 3.30 75.22 3.24Q75.26 3.18 75.26 3.18L75.26 3.18Q75.47 2.83 75.78 2.55Q76.09 2.28 76.43 2.06Q76.78 1.85 77.15 1.66Q77.52 1.47 77.87 1.29L77.87 1.29Q78.19 1.12 78.50 0.94Q78.81 0.76 79.18 0.71L79.18 0.71Q79.35 0.70 79.52 0.73Q79.69 0.76 79.86 0.80L79.86 0.80Q79.94 0.81 80.03 0.82Q80.12 0.83 80.22 0.84L80.22 0.84Q80.46 0.80 80.72 0.79Q80.98 0.78 81.24 0.81L81.24 0.81ZM78.60 9.34L79.23 8.97Q79.27 8.88 79.30 8.79Q79.34 8.69 79.38 8.60L79.38 8.60Q79.17 8.78 78.98 8.97Q78.79 9.16 78.60 9.34L78.60 9.34ZM80.71 6.38L80.71 6.38Q80.68 6.36 80.67 6.32Q80.67 6.29 80.64 6.26L80.64 6.26Q80.63 6.71 80.51 7.17L80.51 7.17Q80.60 7.10 80.67 7.03Q80.75 6.96 80.84 6.89L80.84 6.89Q80.82 6.65 80.71 6.38ZM75.82 3.36L75.82 3.36Q76.12 3.00 76.51 2.67L76.51 2.67Q76.54 2.63 76.56 2.59Q76.58 2.55 76.61 2.51L76.61 2.51Q76.41 2.62 76.26 2.72Q76.10 2.83 76.01 2.90L76.01 2.90Q75.91 3.00 75.82 3.36ZM75.70 4.69L75.70 4.69Q75.73 4.83 75.78 4.90L75.78 4.90L75.91 4.31Q75.78 4.49 75.70 4.69ZM85.33 0.95L85.15 1.16Q85.76 1.16 86.39 1.20Q87.01 1.25 87.43 1.22L87.43 1.22Q87.77 1.19 88.09 1.18Q88.42 1.18 88.77 1.15L88.77 1.15Q88.93 1.15 89.08 1.13Q89.22 1.12 89.38 1.15L89.38 1.15Q89.39 1.15 89.40 1.15Q89.40 1.16 89.42 1.16L89.42 1.16L89.45 1.16L89.50 1.16L89.49 1.18Q89.60 1.25 89.47 1.44L89.47 1.44Q89.54 1.44 89.60 1.45Q89.66 1.46 89.73 1.47L89.73 1.47Q89.89 1.46 90.15 1.45Q90.41 1.44 90.66 1.46Q90.92 1.47 91.11 1.51Q91.29 1.55 91.34 1.65L91.34 1.65Q91.36 1.81 91.29 1.91Q91.21 2.02 91.13 2.13L91.13 2.13Q90.76 2.58 90.43 2.65Q90.10 2.73 89.73 2.63L89.73 2.63Q89.53 2.79 89.36 2.86L89.36 2.86L89.29 2.86Q89.31 2.84 89.33 2.79L89.33 2.79L89.28 2.86Q89.15 2.76 88.95 2.71Q88.75 2.66 88.52 2.64Q88.28 2.62 88.05 2.63Q87.81 2.63 87.61 2.63L87.61 2.63Q87.58 2.83 87.53 3.02Q87.49 3.21 87.46 3.40L87.46 3.40Q87.44 3.43 87.44 3.47L87.44 3.47Q87.44 3.50 87.43 3.53L87.43 3.53Q87.42 4.03 87.43 4.59Q87.44 5.15 87.48 5.71Q87.51 6.27 87.56 6.79Q87.60 7.31 87.64 7.71L87.64 7.71Q87.71 8.27 87.82 8.81Q87.93 9.35 87.96 9.93L87.96 9.93Q87.93 10.04 87.79 10.24Q87.64 10.44 87.46 10.60L87.46 10.60Q87.46 10.63 87.47 10.66Q87.47 10.70 87.47 10.72L87.47 10.72Q87.46 10.81 87.35 10.96Q87.23 11.12 87.10 11.26Q86.97 11.41 86.82 11.50Q86.67 11.59 86.58 11.54L86.58 11.54Q86.56 11.55 86.56 11.55L86.56 11.55Q86.56 11.56 86.55 11.58L86.55 11.58Q86.55 11.55 86.54 11.54Q86.53 11.52 86.53 11.51L86.53 11.51Q86.31 10.57 86.23 9.58Q86.14 8.58 86.13 7.57Q86.11 6.55 86.14 5.54Q86.17 4.54 86.17 3.58L86.17 3.58Q86.17 3.42 86.33 3.18Q86.49 2.95 86.69 2.77L86.69 2.77Q86.70 2.74 86.72 2.71Q86.73 2.67 86.74 2.65L86.74 2.65Q86.70 2.65 86.65 2.65Q86.60 2.66 86.56 2.66L86.56 2.66Q86.16 2.73 85.79 2.80Q85.43 2.87 85.13 2.91L85.13 2.91Q84.77 2.97 84.39 2.97L84.39 2.97Q84.03 2.97 83.66 2.98L83.66 2.98L83.61 2.98Q83.41 3.05 83.22 3.12Q83.02 3.19 82.88 3.16L82.88 3.16L82.84 3.12L82.84 3.08Q82.85 2.91 82.94 2.77Q83.03 2.63 83.17 2.51L83.17 2.51Q83.02 2.55 82.88 2.59Q82.74 2.63 82.59 2.65L82.59 2.65Q82.38 2.66 82.43 2.54Q82.49 2.42 82.64 2.25Q82.78 2.09 82.96 1.94Q83.15 1.79 83.19 1.76L83.19 1.76Q83.22 1.75 83.26 1.74Q83.30 1.74 83.37 1.71L83.37 1.71Q83.45 1.62 83.53 1.55Q83.61 1.48 83.64 1.46L83.64 1.46Q83.71 1.40 83.80 1.36Q83.90 1.32 84.01 1.29L84.01 1.29Q84.11 1.23 84.20 1.18Q84.29 1.12 84.41 1.06L84.41 1.06Q84.64 0.95 84.85 0.95L84.85 0.95Q85.08 0.95 85.33 0.95L85.33 0.95ZM92.54 1.27L92.54 1.27Q92.65 1.25 92.77 1.24Q92.89 1.23 93.00 1.22L93.00 1.22Q93.14 1.19 93.28 1.15Q93.41 1.12 93.53 1.09L93.53 1.09Q94.16 0.97 94.77 0.91Q95.37 0.85 96.00 0.98L96.00 0.98L95.89 1.11Q95.90 1.11 95.91 1.10Q95.93 1.09 95.94 1.09L95.94 1.09Q96.11 1.06 96.28 1.03Q96.46 0.99 96.66 0.95L96.66 0.95L96.63 0.98Q96.73 0.94 96.82 0.90Q96.91 0.85 97.02 0.85L97.02 0.85Q97.03 0.87 97.09 0.87L97.09 0.87L97.09 0.90Q96.85 1.12 96.64 1.33Q96.42 1.54 96.19 1.75L96.19 1.75L96.22 1.78Q96.15 1.78 96.08 1.82Q96.01 1.86 95.93 1.89L95.93 1.89Q95.84 1.92 95.75 1.93Q95.66 1.95 95.58 1.96L95.58 1.96Q95.56 2.39 95.48 2.82Q95.40 3.25 95.35 3.64L95.35 3.64Q95.33 3.92 95.30 4.14Q95.27 4.37 95.24 4.59L95.24 4.59Q95.24 4.93 95.23 5.27Q95.23 5.61 95.21 5.95L95.21 5.95L95.17 6.54Q95.19 6.64 95.19 6.73L95.19 6.73Q95.19 6.82 95.20 6.92L95.20 6.92Q95.23 7.49 95.23 8.06L95.23 8.06Q95.23 8.62 95.33 9.18L95.33 9.18L95.35 9.17L95.35 9.27L95.34 9.28Q95.31 9.34 95.28 9.41Q95.24 9.49 95.17 9.58L95.17 9.58Q95.24 9.55 95.32 9.54Q95.40 9.53 95.47 9.52L95.47 9.52L95.48 9.51L95.54 9.51Q95.54 9.51 95.55 9.52L95.55 9.52Q95.66 9.49 95.78 9.48Q95.90 9.48 96.01 9.46L96.01 9.46Q96.12 9.44 96.32 9.41L96.32 9.41Q96.35 9.41 96.44 9.41Q96.53 9.42 96.60 9.42L96.60 9.42Q96.61 9.42 96.63 9.41Q96.64 9.41 96.66 9.41L96.66 9.41L96.71 9.41L96.70 9.42Q96.80 9.46 96.72 9.61Q96.64 9.76 96.50 9.91Q96.35 10.07 96.17 10.19Q95.98 10.32 95.86 10.33L95.86 10.33Q95.68 10.35 95.49 10.36Q95.31 10.37 95.13 10.40L95.13 10.40Q95.02 10.43 94.93 10.43L94.93 10.43Q94.75 10.51 94.55 10.55Q94.35 10.58 94.12 10.64Q93.90 10.70 93.67 10.79Q93.44 10.88 93.18 11.09L93.18 11.09Q93.00 11.21 92.89 11.21L92.89 11.21Q92.76 11.33 92.62 11.39Q92.48 11.45 92.36 11.45L92.36 11.45Q92.29 11.38 92.32 11.33Q92.34 11.27 92.39 11.20L92.39 11.20Q92.57 10.84 92.85 10.58Q93.13 10.32 93.46 10.12L93.46 10.12Q93.35 8.11 93.40 6.10Q93.45 4.10 93.55 2.07L93.55 2.07Q93.55 2.02 93.62 1.88L93.62 1.88Q93.42 1.90 93.23 1.94Q93.03 1.97 92.83 2.00L92.83 2.00Q92.55 2.06 92.29 2.13Q92.02 2.20 91.74 2.20L91.74 2.20Q91.66 2.11 91.73 1.97Q91.80 1.83 91.95 1.69Q92.09 1.55 92.25 1.44Q92.41 1.32 92.51 1.29L92.51 1.29L92.53 1.27L92.54 1.27ZM92.89 10.71L92.89 10.71Q92.83 10.77 92.81 10.79Q92.79 10.81 92.78 10.83Q92.76 10.85 92.74 10.88Q92.72 10.91 92.68 10.98L92.68 10.98L92.86 10.89Q92.93 10.81 93.01 10.73Q93.09 10.65 93.16 10.58L93.16 10.58L93.16 10.54Q93.13 10.56 93.06 10.58Q93.00 10.60 92.97 10.63L92.97 10.63L92.89 10.71ZM103.36 1.30L103.59 1.54Q103.66 1.41 103.73 1.29Q103.81 1.18 103.92 1.06L103.92 1.06Q103.96 1.02 103.91 1.14Q103.87 1.26 103.87 1.33L103.87 1.33Q103.84 1.46 103.84 1.69Q103.85 1.93 103.87 2.04L103.87 2.04Q103.89 2.42 103.95 2.79Q104.01 3.15 104.05 3.51L104.05 3.51Q104.05 3.53 104.06 3.53L104.06 3.53L104.05 3.54Q104.05 3.56 104.05 3.56Q104.06 3.57 104.06 3.58L104.06 3.58Q104.05 3.67 103.94 3.84Q103.82 4.00 103.68 4.16Q103.53 4.31 103.38 4.40Q103.24 4.48 103.14 4.40L103.14 4.40L103.14 4.38Q102.87 3.82 102.36 3.37Q101.85 2.93 101.22 2.73L101.22 2.73L100.79 3.14Q100.74 3.05 100.74 3.04Q100.73 3.02 100.55 3.09L100.55 3.09Q100.09 3.46 99.86 3.96Q99.64 4.45 99.57 5.00Q99.51 5.56 99.55 6.14Q99.60 6.72 99.67 7.24L99.67 7.24Q99.69 7.38 99.69 7.52L99.69 7.52Q99.69 7.64 99.72 7.77L99.72 7.77Q99.78 7.95 99.87 8.11Q99.96 8.27 100.03 8.46L100.03 8.46Q100.03 8.47 100.06 8.50L100.06 8.50L100.04 8.51Q100.04 8.60 99.97 8.74L99.97 8.74Q100.63 9.03 101.41 9.02Q102.19 9.02 102.96 8.69L102.96 8.69Q103.11 8.64 103.25 8.48Q103.39 8.32 103.52 8.14Q103.66 7.97 103.77 7.82Q103.88 7.67 103.95 7.64L103.95 7.64Q103.99 7.63 103.94 7.73Q103.89 7.83 103.84 7.90L103.84 7.90L104.59 7.39Q104.57 7.46 104.52 7.55Q104.48 7.63 104.45 7.66L104.45 7.66Q104.36 7.80 104.31 7.85Q104.26 7.91 104.22 7.95Q104.19 7.99 104.15 8.04Q104.10 8.09 104.01 8.20L104.01 8.20Q103.67 8.60 103.31 8.96Q102.94 9.32 102.48 9.53L102.48 9.53Q101.86 9.81 101.14 9.90Q100.41 9.98 99.73 9.83Q99.05 9.67 98.50 9.26Q97.96 8.85 97.71 8.13L97.71 8.13Q97.44 7.39 97.43 6.59Q97.41 5.78 97.61 5.01Q97.82 4.24 98.23 3.55Q98.64 2.86 99.23 2.35L99.23 2.35Q99.64 2.00 100.11 1.84Q100.58 1.68 101.07 1.68L101.07 1.68Q101.56 1.68 102.03 1.82Q102.51 1.96 102.91 2.24L102.91 2.24Q102.94 1.99 103.05 1.75Q103.15 1.51 103.36 1.30L103.36 1.30ZM104.65 7.35L104.59 7.39Q104.66 7.24 104.65 7.35L104.65 7.35ZM111.99 0.81L111.19 1.74Q111.08 1.74 111.02 1.72L111.02 1.72L110.99 1.76Q110.89 1.78 110.80 1.79Q110.71 1.81 110.60 1.83L110.60 1.83L110.56 1.83Q110.18 1.90 109.73 2.03Q109.28 2.16 108.82 2.34L108.82 2.34Q108.28 2.70 107.73 3.21L107.73 3.21Q107.55 3.70 107.44 4.21Q107.32 4.72 107.41 5.21L107.41 5.21Q107.80 5.22 108.23 5.11Q108.67 5.00 109.11 4.87Q109.55 4.75 109.99 4.65Q110.43 4.55 110.82 4.59L110.82 4.59Q110.94 4.62 111.08 4.66Q111.22 4.69 111.36 4.72L111.36 4.72Q111.73 4.68 112 4.70Q112.27 4.72 112.43 4.87L112.43 4.87Q112.59 4.90 112.63 4.96L112.63 4.96Q112.80 5.24 112.82 5.50Q112.84 5.75 112.76 5.99L112.76 5.99Q112.76 6.34 112.60 6.69Q112.45 7.04 112.21 7.36L112.21 7.36Q112.03 7.70 111.75 8.02Q111.48 8.33 111.19 8.62Q110.89 8.90 110.60 9.16Q110.31 9.42 110.08 9.65L110.08 9.65Q109.63 10.14 109.26 10.38Q108.89 10.63 108.47 10.70L108.47 10.70Q108.09 10.85 107.70 10.93L107.70 10.93Q107.67 10.93 107.64 10.94Q107.60 10.95 107.58 10.95L107.58 10.95Q107.46 11.03 107.42 11.07L107.42 11.07Q107.42 11.05 107.44 11.03Q107.45 11.00 107.45 10.98L107.45 10.98Q107.17 11.02 106.95 11.02L106.95 11.02Q106.72 11.02 106.50 10.99Q106.29 10.96 106.06 10.89Q105.84 10.82 105.55 10.74L105.55 10.74Q105.39 10.68 105.24 10.63Q105.10 10.57 105 10.43L105 10.43Q105.11 10.32 105.22 10.22Q105.34 10.12 105.45 10.01L105.45 10.01Q105.41 9.88 105.32 9.76L105.32 9.76Q105.34 9.63 105.43 9.48Q105.52 9.32 105.65 9.18Q105.78 9.04 105.94 8.95Q106.09 8.86 106.23 8.89L106.23 8.89L106.25 8.88Q106.25 8.90 106.27 8.93L106.27 8.93Q106.36 9.04 106.44 9.04L106.44 9.04L106.34 9.16Q106.36 9.24 106.41 9.31L106.41 9.31Q106.47 9.42 106.64 9.52L106.64 9.52L106.67 9.49Q107.21 9.60 107.68 9.62Q108.15 9.63 108.60 9.56L108.60 9.56Q108.82 9.35 109.03 9.13Q109.24 8.92 109.48 8.69L109.48 8.69L109.49 8.68Q109.52 8.65 109.56 8.62Q109.59 8.58 109.63 8.55L109.63 8.55L109.70 8.48Q109.82 8.37 109.93 8.26Q110.05 8.15 110.18 8.04L110.18 8.04Q110.22 7.99 110.27 7.96Q110.32 7.92 110.36 7.88L110.36 7.88Q110.49 7.42 110.48 6.96Q110.47 6.50 110.29 5.94L110.29 5.94L110.25 5.94L110.22 5.96L110.22 5.95Q109.72 6.05 109.23 6.20Q108.74 6.36 108.24 6.49Q107.74 6.62 107.25 6.69Q106.76 6.76 106.27 6.68L106.27 6.68Q106.12 6.65 105.98 6.58Q105.84 6.51 105.70 6.44L105.70 6.44Q105.53 6.37 105.47 6.21Q105.41 6.05 105.43 5.85L105.43 5.85Q105.38 5.67 105.41 5.46Q105.45 5.25 105.53 5.01L105.53 5.01Q105.55 4.80 105.57 4.59Q105.59 4.38 105.62 4.19Q105.66 4.00 105.69 3.87Q105.71 3.74 105.73 3.68L105.73 3.68Q105.74 3.64 105.78 3.56Q105.83 3.47 105.88 3.39Q105.92 3.30 105.97 3.24Q106.01 3.18 106.01 3.18L106.01 3.18Q106.22 2.83 106.53 2.55Q106.83 2.28 107.18 2.06Q107.52 1.85 107.89 1.66Q108.26 1.47 108.61 1.29L108.61 1.29Q108.93 1.12 109.24 0.94Q109.55 0.76 109.93 0.71L109.93 0.71Q110.10 0.70 110.26 0.73Q110.43 0.76 110.60 0.80L110.60 0.80Q110.68 0.81 110.77 0.82Q110.87 0.83 110.96 0.84L110.96 0.84Q111.20 0.80 111.46 0.79Q111.72 0.78 111.99 0.81L111.99 0.81ZM109.34 9.34L109.97 8.97Q110.01 8.88 110.05 8.79Q110.08 8.69 110.12 8.60L110.12 8.60Q109.91 8.78 109.72 8.97Q109.54 9.16 109.34 9.34L109.34 9.34ZM111.45 6.38L111.45 6.38Q111.43 6.36 111.42 6.32Q111.41 6.29 111.38 6.26L111.38 6.26Q111.37 6.71 111.26 7.17L111.26 7.17Q111.34 7.10 111.42 7.03Q111.50 6.96 111.58 6.89L111.58 6.89Q111.57 6.65 111.45 6.38ZM106.57 3.36L106.57 3.36Q106.86 3.00 107.25 2.67L107.25 2.67Q107.28 2.63 107.30 2.59Q107.32 2.55 107.35 2.51L107.35 2.51Q107.16 2.62 107.00 2.72Q106.85 2.83 106.75 2.90L106.75 2.90Q106.65 3.00 106.57 3.36ZM106.44 4.69L106.44 4.69Q106.47 4.83 106.53 4.90L106.53 4.90L106.65 4.31Q106.53 4.49 106.44 4.69Z"></path></g><!----><!----></svg>